<svg xmlns="http://www.w3.org/2000/svg" xmlns:xlink="http://www.w3.org/1999/xlink" width="500" zoomAndPan="magnify" viewBox="0 0 375 374.999991" height="500" preserveAspectRatio="xMidYMid meet" version="1.0"><defs><g/><clipPath id="558d82bacb"><path d="M 55.429688 180.554688 L 318.21875 180.554688 L 318.21875 198.445312 L 55.429688 198.445312 Z M 55.429688 180.554688 " clip-rule="nonzero"/></clipPath></defs><rect x="-37.5" width="450" fill="#ffffff" y="-37.499999" height="449.999989" fill-opacity="1"/><rect x="-37.5" width="450" fill="#645b50" y="-37.499999" height="449.999989" fill-opacity="1"/><path stroke-linecap="butt" transform="matrix(0.00181951, -0.749998, 0.749998, 0.00181951, 187.578772, 281.272218)" fill="none" stroke-linejoin="miter" d="M -0.000415709 0.49914 L 250.068044 0.501845 " stroke="#ffffff" stroke-width="1" stroke-opacity="1" stroke-miterlimit="4"/><g fill="#ffffff" fill-opacity="1"><g transform="translate(76.244737, 244.368615)"><g><path d="M 3.351562 -19.558594 C 3.351562 -7.933594 10.730469 2.234375 23.691406 2.234375 C 45.933594 2.234375 59.007812 -17.433594 59.007812 -44.589844 C 59.007812 -49.957031 58.785156 -54.425781 58.335938 -58.003906 L 72.195312 -21.457031 C 76.441406 -10.171875 77 -1.117188 61.242188 -1.117188 L 61.242188 0 L 97.898438 0 L 97.898438 -1.117188 C 91.082031 -1.117188 87.507812 -7.265625 82.589844 -19.558594 L 46.828125 -113.992188 L 45.707031 -113.992188 C 38.667969 -95.441406 34.53125 -84.375 27.714844 -66.382812 C 26.597656 -63.476562 27.15625 -60.460938 30.285156 -60.460938 C 36.65625 -60.460938 40.007812 -72.195312 45.375 -72.195312 C 46.828125 -72.195312 48.054688 -71.300781 48.054688 -69.179688 C 48.054688 -57.554688 3.351562 -47.050781 3.351562 -19.558594 Z M 12.851562 -21.679688 C 12.851562 -49.285156 49.285156 -53.980469 49.285156 -68.953125 C 49.285156 -71.859375 47.71875 -73.3125 45.597656 -73.3125 C 39.675781 -73.3125 35.539062 -61.578125 30.398438 -61.578125 C 28.609375 -61.578125 27.714844 -62.917969 29.167969 -66.832031 L 42.019531 -101.027344 L 55.542969 -65.378906 C 57.554688 -58.785156 57.890625 -52.636719 57.890625 -44.367188 C 57.890625 -26.039062 49.0625 -3.128906 30.398438 -3.128906 C 19.445312 -3.128906 12.851562 -11.175781 12.851562 -21.679688 Z M 12.851562 -21.679688 "/></g></g></g><g fill="#ffffff" fill-opacity="1"><g transform="translate(206.87954, 244.368615)"><g><path d="M 6.707031 -84.9375 C 6.707031 -48.277344 78.675781 -57.777344 78.675781 -24.140625 C 78.675781 -11.734375 65.824219 0.222656 49.507812 0.222656 C 22.910156 0.222656 8.269531 -26.375 8.269531 -26.375 L 7.152344 -26.375 L 7.152344 -11.398438 C 15.421875 -5.253906 28.5 2.234375 43.25 2.234375 C 69.066406 2.234375 85.160156 -13.1875 85.160156 -28.722656 C 85.160156 -67.835938 14.527344 -56.996094 14.527344 -87.617188 C 14.527344 -100.023438 25.929688 -112.652344 46.714844 -112.652344 C 70.628906 -112.652344 77.449219 -93.875 77.449219 -93.875 L 78.566406 -93.875 L 78.566406 -108.851562 C 69.960938 -111.757812 60.460938 -113.992188 46.714844 -113.992188 C 20.898438 -113.992188 6.707031 -100.46875 6.707031 -84.9375 Z M 6.707031 -84.9375 "/></g></g></g><g clip-path="url(#558d82bacb)"><path fill="#645b50" d="M 55.429688 180.554688 L 318.21875 180.554688 L 318.21875 198.445312 L 55.429688 198.445312 Z M 55.429688 180.554688 " fill-opacity="1" fill-rule="nonzero"/></g><g fill="#ffffff" fill-opacity="1"><g transform="translate(68.085757, 193.593907)"><g><path d="M 8.40625 -2.84375 L 2.484375 -2.84375 L 1.203125 0 L 0.03125 0 L 4.890625 -10.640625 L 6 -10.640625 L 10.875 0 L 9.6875 0 Z M 8 -3.75 L 5.4375 -9.46875 L 2.890625 -3.75 Z M 8 -3.75 "/></g></g></g><g fill="#ffffff" fill-opacity="1"><g transform="translate(83.823161, 193.593907)"><g><path d="M 1.734375 -10.640625 L 2.859375 -10.640625 L 2.859375 -0.96875 L 8.8125 -0.96875 L 8.8125 0 L 1.734375 0 Z M 1.734375 -10.640625 "/></g></g></g><g fill="#ffffff" fill-opacity="1"><g transform="translate(97.616811, 193.593907)"><g><path d="M 9.265625 -0.96875 L 9.265625 0 L 1.734375 0 L 1.734375 -10.640625 L 9.03125 -10.640625 L 9.03125 -9.671875 L 2.859375 -9.671875 L 2.859375 -5.890625 L 8.359375 -5.890625 L 8.359375 -4.921875 L 2.859375 -4.921875 L 2.859375 -0.96875 Z M 9.265625 -0.96875 "/></g></g></g><g fill="#ffffff" fill-opacity="1"><g transform="translate(112.625307, 193.593907)"><g><path d="M 8.40625 0 L 4.96875 -4.6875 L 1.546875 0 L 0.265625 0 L 4.296875 -5.46875 L 0.515625 -10.640625 L 1.8125 -10.640625 L 5.015625 -6.296875 L 8.203125 -10.640625 L 9.421875 -10.640625 L 5.65625 -5.5 L 9.71875 0 Z M 8.40625 0 "/></g></g></g><g fill="#ffffff" fill-opacity="1"><g transform="translate(127.436392, 193.593907)"><g><path d="M 8.40625 -2.84375 L 2.484375 -2.84375 L 1.203125 0 L 0.03125 0 L 4.890625 -10.640625 L 6 -10.640625 L 10.875 0 L 9.6875 0 Z M 8 -3.75 L 5.4375 -9.46875 L 2.890625 -3.75 Z M 8 -3.75 "/></g></g></g><g fill="#ffffff" fill-opacity="1"><g transform="translate(143.173796, 193.593907)"><g><path d="M 10.625 -10.640625 L 10.625 0 L 9.703125 0 L 2.859375 -8.640625 L 2.859375 0 L 1.734375 0 L 1.734375 -10.640625 L 2.65625 -10.640625 L 9.515625 -2 L 9.515625 -10.640625 Z M 10.625 -10.640625 "/></g></g></g><g fill="#ffffff" fill-opacity="1"><g transform="translate(160.369016, 193.593907)"><g><path d="M 1.734375 -10.640625 L 6.0625 -10.640625 C 7.1875 -10.640625 8.179688 -10.414062 9.046875 -9.96875 C 9.910156 -9.519531 10.578125 -8.890625 11.046875 -8.078125 C 11.523438 -7.273438 11.765625 -6.359375 11.765625 -5.328125 C 11.765625 -4.285156 11.523438 -3.363281 11.046875 -2.5625 C 10.578125 -1.757812 9.910156 -1.128906 9.046875 -0.671875 C 8.179688 -0.222656 7.1875 0 6.0625 0 L 1.734375 0 Z M 6 -0.96875 C 6.9375 -0.96875 7.753906 -1.148438 8.453125 -1.515625 C 9.148438 -1.890625 9.691406 -2.40625 10.078125 -3.0625 C 10.460938 -3.71875 10.65625 -4.472656 10.65625 -5.328125 C 10.65625 -6.171875 10.460938 -6.921875 10.078125 -7.578125 C 9.691406 -8.234375 9.148438 -8.742188 8.453125 -9.109375 C 7.753906 -9.484375 6.9375 -9.671875 6 -9.671875 L 2.859375 -9.671875 L 2.859375 -0.96875 Z M 6 -0.96875 "/></g></g></g><g fill="#ffffff" fill-opacity="1"><g transform="translate(177.761647, 193.593907)"><g><path d="M 9 0 L 6.5625 -3.421875 C 6.289062 -3.390625 6.007812 -3.375 5.71875 -3.375 L 2.859375 -3.375 L 2.859375 0 L 1.734375 0 L 1.734375 -10.640625 L 5.71875 -10.640625 C 7.070312 -10.640625 8.132812 -10.316406 8.90625 -9.671875 C 9.675781 -9.023438 10.0625 -8.132812 10.0625 -7 C 10.0625 -6.164062 9.847656 -5.460938 9.421875 -4.890625 C 9.003906 -4.316406 8.40625 -3.90625 7.625 -3.65625 L 10.234375 0 Z M 5.6875 -4.328125 C 6.738281 -4.328125 7.539062 -4.5625 8.09375 -5.03125 C 8.65625 -5.5 8.9375 -6.15625 8.9375 -7 C 8.9375 -7.851562 8.65625 -8.507812 8.09375 -8.96875 C 7.539062 -9.4375 6.738281 -9.671875 5.6875 -9.671875 L 2.859375 -9.671875 L 2.859375 -4.328125 Z M 5.6875 -4.328125 "/></g></g></g><g fill="#ffffff" fill-opacity="1"><g transform="translate(193.590168, 193.593907)"><g><path d="M 8.40625 -2.84375 L 2.484375 -2.84375 L 1.203125 0 L 0.03125 0 L 4.890625 -10.640625 L 6 -10.640625 L 10.875 0 L 9.6875 0 Z M 8 -3.75 L 5.4375 -9.46875 L 2.890625 -3.75 Z M 8 -3.75 "/></g></g></g><g fill="#ffffff" fill-opacity="1"><g transform="translate(209.32758, 193.593907)"><g/></g></g><g fill="#ffffff" fill-opacity="1"><g transform="translate(218.155541, 193.593907)"><g><path d="M 4.671875 0.09375 C 3.878906 0.09375 3.117188 -0.03125 2.390625 -0.28125 C 1.671875 -0.539062 1.113281 -0.878906 0.71875 -1.296875 L 1.15625 -2.15625 C 1.539062 -1.769531 2.050781 -1.457031 2.6875 -1.21875 C 3.332031 -0.976562 3.992188 -0.859375 4.671875 -0.859375 C 5.617188 -0.859375 6.332031 -1.035156 6.8125 -1.390625 C 7.289062 -1.742188 7.53125 -2.195312 7.53125 -2.75 C 7.53125 -3.175781 7.398438 -3.515625 7.140625 -3.765625 C 6.878906 -4.023438 6.5625 -4.222656 6.1875 -4.359375 C 5.8125 -4.492188 5.289062 -4.640625 4.625 -4.796875 C 3.820312 -5.003906 3.179688 -5.203125 2.703125 -5.390625 C 2.222656 -5.578125 1.8125 -5.863281 1.46875 -6.25 C 1.132812 -6.632812 0.96875 -7.15625 0.96875 -7.8125 C 0.96875 -8.351562 1.109375 -8.84375 1.390625 -9.28125 C 1.679688 -9.71875 2.117188 -10.066406 2.703125 -10.328125 C 3.296875 -10.597656 4.023438 -10.734375 4.890625 -10.734375 C 5.503906 -10.734375 6.101562 -10.648438 6.6875 -10.484375 C 7.269531 -10.316406 7.769531 -10.085938 8.1875 -9.796875 L 7.8125 -8.890625 C 7.363281 -9.179688 6.882812 -9.398438 6.375 -9.546875 C 5.875 -9.703125 5.378906 -9.78125 4.890625 -9.78125 C 3.960938 -9.78125 3.257812 -9.597656 2.78125 -9.234375 C 2.3125 -8.878906 2.078125 -8.414062 2.078125 -7.84375 C 2.078125 -7.414062 2.207031 -7.070312 2.46875 -6.8125 C 2.726562 -6.5625 3.050781 -6.363281 3.4375 -6.21875 C 3.832031 -6.082031 4.359375 -5.9375 5.015625 -5.78125 C 5.796875 -5.582031 6.425781 -5.390625 6.90625 -5.203125 C 7.382812 -5.015625 7.789062 -4.726562 8.125 -4.34375 C 8.46875 -3.96875 8.640625 -3.457031 8.640625 -2.8125 C 8.640625 -2.269531 8.492188 -1.78125 8.203125 -1.34375 C 7.910156 -0.90625 7.460938 -0.554688 6.859375 -0.296875 C 6.265625 -0.0351562 5.535156 0.09375 4.671875 0.09375 Z M 4.671875 0.09375 "/></g></g></g><g fill="#ffffff" fill-opacity="1"><g transform="translate(232.344019, 193.593907)"><g><path d="M 3.796875 -9.671875 L 0.0625 -9.671875 L 0.0625 -10.640625 L 8.671875 -10.640625 L 8.671875 -9.671875 L 4.921875 -9.671875 L 4.921875 0 L 3.796875 0 Z M 3.796875 -9.671875 "/></g></g></g><g fill="#ffffff" fill-opacity="1"><g transform="translate(245.909896, 193.593907)"><g><path d="M 9 0 L 6.5625 -3.421875 C 6.289062 -3.390625 6.007812 -3.375 5.71875 -3.375 L 2.859375 -3.375 L 2.859375 0 L 1.734375 0 L 1.734375 -10.640625 L 5.71875 -10.640625 C 7.070312 -10.640625 8.132812 -10.316406 8.90625 -9.671875 C 9.675781 -9.023438 10.0625 -8.132812 10.0625 -7 C 10.0625 -6.164062 9.847656 -5.460938 9.421875 -4.890625 C 9.003906 -4.316406 8.40625 -3.90625 7.625 -3.65625 L 10.234375 0 Z M 5.6875 -4.328125 C 6.738281 -4.328125 7.539062 -4.5625 8.09375 -5.03125 C 8.65625 -5.5 8.9375 -6.15625 8.9375 -7 C 8.9375 -7.851562 8.65625 -8.507812 8.09375 -8.96875 C 7.539062 -9.4375 6.738281 -9.671875 5.6875 -9.671875 L 2.859375 -9.671875 L 2.859375 -4.328125 Z M 5.6875 -4.328125 "/></g></g></g><g fill="#ffffff" fill-opacity="1"><g transform="translate(261.738424, 193.593907)"><g><path d="M 6.390625 0.09375 C 5.328125 0.09375 4.367188 -0.140625 3.515625 -0.609375 C 2.660156 -1.085938 1.992188 -1.734375 1.515625 -2.546875 C 1.035156 -3.367188 0.796875 -4.296875 0.796875 -5.328125 C 0.796875 -6.347656 1.035156 -7.265625 1.515625 -8.078125 C 1.992188 -8.898438 2.660156 -9.546875 3.515625 -10.015625 C 4.367188 -10.492188 5.328125 -10.734375 6.390625 -10.734375 C 7.441406 -10.734375 8.390625 -10.5 9.234375 -10.03125 C 10.078125 -9.5625 10.742188 -8.914062 11.234375 -8.09375 C 11.722656 -7.269531 11.96875 -6.347656 11.96875 -5.328125 C 11.96875 -4.296875 11.722656 -3.367188 11.234375 -2.546875 C 10.742188 -1.722656 10.078125 -1.078125 9.234375 -0.609375 C 8.390625 -0.140625 7.441406 0.09375 6.390625 0.09375 Z M 6.390625 -0.90625 C 7.222656 -0.90625 7.976562 -1.09375 8.65625 -1.46875 C 9.34375 -1.851562 9.878906 -2.382812 10.265625 -3.0625 C 10.648438 -3.738281 10.84375 -4.492188 10.84375 -5.328125 C 10.84375 -6.148438 10.648438 -6.898438 10.265625 -7.578125 C 9.878906 -8.253906 9.34375 -8.78125 8.65625 -9.15625 C 7.976562 -9.539062 7.222656 -9.734375 6.390625 -9.734375 C 5.546875 -9.734375 4.78125 -9.539062 4.09375 -9.15625 C 3.414062 -8.78125 2.878906 -8.253906 2.484375 -7.578125 C 2.097656 -6.898438 1.90625 -6.148438 1.90625 -5.328125 C 1.90625 -4.492188 2.097656 -3.738281 2.484375 -3.0625 C 2.878906 -2.382812 3.414062 -1.851562 4.09375 -1.46875 C 4.78125 -1.09375 5.546875 -0.90625 6.390625 -0.90625 Z M 6.390625 -0.90625 "/></g></g></g><g fill="#ffffff" fill-opacity="1"><g transform="translate(279.328474, 193.593907)"><g><path d="M 10.625 -10.640625 L 10.625 0 L 9.703125 0 L 2.859375 -8.640625 L 2.859375 0 L 1.734375 0 L 1.734375 -10.640625 L 2.65625 -10.640625 L 9.515625 -2 L 9.515625 -10.640625 Z M 10.625 -10.640625 "/></g></g></g><g fill="#ffffff" fill-opacity="1"><g transform="translate(296.5237, 193.593907)"><g><path d="M 9.234375 -5.328125 L 10.3125 -5.328125 L 10.3125 -1.265625 C 9.8125 -0.828125 9.222656 -0.488281 8.546875 -0.25 C 7.867188 -0.0195312 7.15625 0.09375 6.40625 0.09375 C 5.332031 0.09375 4.367188 -0.140625 3.515625 -0.609375 C 2.671875 -1.078125 2.003906 -1.722656 1.515625 -2.546875 C 1.035156 -3.367188 0.796875 -4.296875 0.796875 -5.328125 C 0.796875 -6.347656 1.035156 -7.269531 1.515625 -8.09375 C 2.003906 -8.914062 2.671875 -9.5625 3.515625 -10.03125 C 4.367188 -10.5 5.335938 -10.734375 6.421875 -10.734375 C 7.222656 -10.734375 7.960938 -10.601562 8.640625 -10.34375 C 9.328125 -10.082031 9.90625 -9.703125 10.375 -9.203125 L 9.671875 -8.484375 C 8.828125 -9.316406 7.757812 -9.734375 6.46875 -9.734375 C 5.601562 -9.734375 4.820312 -9.539062 4.125 -9.15625 C 3.4375 -8.78125 2.894531 -8.253906 2.5 -7.578125 C 2.101562 -6.898438 1.90625 -6.148438 1.90625 -5.328125 C 1.90625 -4.492188 2.101562 -3.738281 2.5 -3.0625 C 2.894531 -2.394531 3.4375 -1.867188 4.125 -1.484375 C 4.8125 -1.097656 5.585938 -0.90625 6.453125 -0.90625 C 7.546875 -0.90625 8.472656 -1.179688 9.234375 -1.734375 Z M 9.234375 -5.328125 "/></g></g></g></svg>